# xmcd CD database file
#
# Track frame offsets:
#	150
#	17337
#	30415
#	40937
#	57527
#	73732
#	86465
#	98552
#	113240
#	127660
#	138420
#	147515
#	161722
#	176532
#	187800
#	199727
#	214040
#	225630
#	234317
#	246630
#	259470
#	269512
#
# Disc length: 3735 seconds
#
# Revision: 1
# Processed by: cddbd v1.5.2PL0 Copyright (c) Steve Scherf et al.
# Submitted via: jetAudio 7
#
DISCID=370e9516
DTITLE=Various Artist - Country Moods And Memories Disc 5
DYEAR=1900
DGENRE=Country
TTITLE0=Ghost Riders In The Sky
TTITLE1=I Love You Because
TTITLE2=Blueberry Hill
TTITLE3=Cool Water
TTITLE4=Red River Valley
TTITLE5=Faded Love
TTITLE6=Just Out Of Reach
TTITLE7=(There'll Be) Peace In The Valley
TTITLE8=Release Me (And Let Me Love Again)
TTITLE9=Tumbling Tumbleweeds
TTITLE10=Careless Hands
TTITLE11=I Fall To Pieces
TTITLE12=(Hey, Won't You Play) Another Somebody Done Somebody Wrong Son
TTITLE13=Heaven's Just A Sin Away
TTITLE14=Raindrops Keep Falling On My Head
TTITLE15=Funny How Time Slips Away
TTITLE16=Make The World Go Away
TTITLE17=England Swings
TTITLE18=Take Me Home, Country Roads
TTITLE19=Rose Garden
TTITLE20=Snowbird
TTITLE21=San Antonio Rose
EXTD=
EXTT0=
EXTT1=
EXTT2=
EXTT3=
EXTT4=
EXTT5=
EXTT6=
EXTT7=
EXTT8=
EXTT9=
EXTT10=
EXTT11=
EXTT12=
EXTT13=
EXTT14=
EXTT15=
EXTT16=
EXTT17=
EXTT18=
EXTT19=
EXTT20=
EXTT21=
PLAYORDER=
